<?xml version="1.0" encoding="UTF-8" standalone="no"?>
<!DOCTYPE svg PUBLIC "-//W3C//DTD SVG 1.1//EN"
 "http://www.w3.org/Graphics/SVG/1.1/DTD/svg11.dtd">
<!-- Generated by graphviz version 2.36.0 (20140111.2315)
 -->
<!-- Title: controllers_diagram Pages: 1 -->
<svg width="655pt" height="644pt"
 viewBox="0.00 0.00 655.00 644.00" xmlns="http://www.w3.org/2000/svg" xmlns:xlink="http://www.w3.org/1999/xlink">
<g id="graph0" class="graph" transform="scale(1 1) rotate(0) translate(4 640)">
<title>controllers_diagram</title>
<polygon fill="none" stroke="none" points="-4,4 -4,-640 651,-640 651,4 -4,4"/>
<!-- _diagram_info -->
<g id="node1" class="node"><title>_diagram_info</title>
<text text-anchor="start" x="392" y="-191.6" font-family="Times,serif" font-size="13.00">Controllers diagram</text>
<text text-anchor="start" x="392" y="-177.6" font-family="Times,serif" font-size="13.00">Date: Dec 25 2016 &#45; 21:38</text>
<text text-anchor="start" x="392" y="-163.6" font-family="Times,serif" font-size="13.00">Migration version: 20160915214750</text>
<text text-anchor="start" x="392" y="-149.6" font-family="Times,serif" font-size="13.00">Generated by RailRoady 1.5.2</text>
<text text-anchor="start" x="392" y="-135.6" font-family="Times,serif" font-size="13.00">http://railroady.prestonlee.com</text>
</g>
<!-- Users::OmniauthCallbacksController -->
<g id="node2" class="node"><title>Users::OmniauthCallbacksController</title>
<path fill="none" stroke="black" d="M140,-224.5C140,-224.5 334,-224.5 334,-224.5 340,-224.5 346,-230.5 346,-236.5 346,-236.5 346,-305.5 346,-305.5 346,-311.5 340,-317.5 334,-317.5 334,-317.5 140,-317.5 140,-317.5 134,-317.5 128,-311.5 128,-305.5 128,-305.5 128,-236.5 128,-236.5 128,-230.5 134,-224.5 140,-224.5"/>
<text text-anchor="middle" x="237" y="-302.3" font-family="Times,serif" font-size="14.00">Users::OmniauthCallbacksController</text>
<polyline fill="none" stroke="black" points="128,-294.5 346,-294.5 "/>
<text text-anchor="start" x="136" y="-279.3" font-family="Times,serif" font-size="14.00">google_oauth2</text>
<polyline fill="none" stroke="black" points="128,-271.5 346,-271.5 "/>
<polyline fill="none" stroke="black" points="128,-247.5 346,-247.5 "/>
<text text-anchor="start" x="136" y="-232.3" font-family="Times,serif" font-size="14.00">_layout</text>
</g>
<!-- Users::RegistrationsController -->
<g id="node3" class="node"><title>Users::RegistrationsController</title>
<path fill="none" stroke="black" d="M332,-352.5C332,-352.5 490,-352.5 490,-352.5 496,-352.5 502,-358.5 502,-364.5 502,-364.5 502,-463.5 502,-463.5 502,-469.5 496,-475.5 490,-475.5 490,-475.5 332,-475.5 332,-475.5 326,-475.5 320,-469.5 320,-463.5 320,-463.5 320,-364.5 320,-364.5 320,-358.5 326,-352.5 332,-352.5"/>
<text text-anchor="middle" x="411" y="-460.3" font-family="Times,serif" font-size="14.00">Users::RegistrationsController</text>
<polyline fill="none" stroke="black" points="320,-452.5 502,-452.5 "/>
<text text-anchor="start" x="328" y="-437.3" font-family="Times,serif" font-size="14.00">update</text>
<polyline fill="none" stroke="black" points="320,-429.5 502,-429.5 "/>
<polyline fill="none" stroke="black" points="320,-405.5 502,-405.5 "/>
<text text-anchor="start" x="328" y="-390.3" font-family="Times,serif" font-size="14.00">_layout</text>
<text text-anchor="start" x="328" y="-375.3" font-family="Times,serif" font-size="14.00">sign_up_params</text>
<text text-anchor="start" x="328" y="-360.3" font-family="Times,serif" font-size="14.00">update_params</text>
</g>
<!-- Users::PasswordsController -->
<g id="node4" class="node"><title>Users::PasswordsController</title>
<path fill="none" stroke="black" d="M492,-512.5C492,-512.5 635,-512.5 635,-512.5 641,-512.5 647,-518.5 647,-524.5 647,-524.5 647,-594.5 647,-594.5 647,-600.5 641,-606.5 635,-606.5 635,-606.5 492,-606.5 492,-606.5 486,-606.5 480,-600.5 480,-594.5 480,-594.5 480,-524.5 480,-524.5 480,-518.5 486,-512.5 492,-512.5"/>
<text text-anchor="middle" x="563.5" y="-591.3" font-family="Times,serif" font-size="14.00">Users::PasswordsController</text>
<polyline fill="none" stroke="black" points="480,-583.5 647,-583.5 "/>
<polyline fill="none" stroke="black" points="480,-559.5 647,-559.5 "/>
<polyline fill="none" stroke="black" points="480,-535.5 647,-535.5 "/>
<text text-anchor="start" x="488" y="-520.3" font-family="Times,serif" font-size="14.00">_layout</text>
</g>
<!-- Users::SessionsController -->
<g id="node5" class="node"><title>Users::SessionsController</title>
<path fill="none" stroke="black" d="M396,-0.5C396,-0.5 529,-0.5 529,-0.5 535,-0.5 541,-6.5 541,-12.5 541,-12.5 541,-82.5 541,-82.5 541,-88.5 535,-94.5 529,-94.5 529,-94.5 396,-94.5 396,-94.5 390,-94.5 384,-88.5 384,-82.5 384,-82.5 384,-12.5 384,-12.5 384,-6.5 390,-0.5 396,-0.5"/>
<text text-anchor="middle" x="462.5" y="-79.3" font-family="Times,serif" font-size="14.00">Users::SessionsController</text>
<polyline fill="none" stroke="black" points="384,-71.5 541,-71.5 "/>
<polyline fill="none" stroke="black" points="384,-47.5 541,-47.5 "/>
<polyline fill="none" stroke="black" points="384,-23.5 541,-23.5 "/>
<text text-anchor="start" x="392" y="-8.3" font-family="Times,serif" font-size="14.00">_layout</text>
</g>
<!-- ApplicationController -->
<g id="node6" class="node"><title>ApplicationController</title>
<path fill="none" stroke="black" d="M220,-64.5C220,-64.5 336,-64.5 336,-64.5 342,-64.5 348,-70.5 348,-76.5 348,-76.5 348,-175.5 348,-175.5 348,-181.5 342,-187.5 336,-187.5 336,-187.5 220,-187.5 220,-187.5 214,-187.5 208,-181.5 208,-175.5 208,-175.5 208,-76.5 208,-76.5 208,-70.5 214,-64.5 220,-64.5"/>
<text text-anchor="middle" x="278" y="-172.3" font-family="Times,serif" font-size="14.00">ApplicationController</text>
<polyline fill="none" stroke="black" points="208,-164.5 348,-164.5 "/>
<text text-anchor="start" x="216" y="-149.3" font-family="Times,serif" font-size="14.00">after_sign_in_path_for</text>
<text text-anchor="start" x="216" y="-134.3" font-family="Times,serif" font-size="14.00">allow_admin_only</text>
<text text-anchor="start" x="216" y="-119.3" font-family="Times,serif" font-size="14.00">allow_user_only</text>
<polyline fill="none" stroke="black" points="208,-111.5 348,-111.5 "/>
<polyline fill="none" stroke="black" points="208,-87.5 348,-87.5 "/>
<text text-anchor="start" x="216" y="-72.3" font-family="Times,serif" font-size="14.00">_layout</text>
</g>
<!-- ItemsController -->
<g id="node7" class="node"><title>ItemsController</title>
<path fill="none" stroke="black" d="M204,-352.5C204,-352.5 283,-352.5 283,-352.5 289,-352.5 295,-358.5 295,-364.5 295,-364.5 295,-523.5 295,-523.5 295,-529.5 289,-535.5 283,-535.5 283,-535.5 204,-535.5 204,-535.5 198,-535.5 192,-529.5 192,-523.5 192,-523.5 192,-364.5 192,-364.5 192,-358.5 198,-352.5 204,-352.5"/>
<text text-anchor="middle" x="243.5" y="-520.3" font-family="Times,serif" font-size="14.00">ItemsController</text>
<polyline fill="none" stroke="black" points="192,-512.5 295,-512.5 "/>
<text text-anchor="start" x="200" y="-497.3" font-family="Times,serif" font-size="14.00">create</text>
<text text-anchor="start" x="200" y="-482.3" font-family="Times,serif" font-size="14.00">destroy</text>
<text text-anchor="start" x="200" y="-467.3" font-family="Times,serif" font-size="14.00">edit</text>
<text text-anchor="start" x="200" y="-452.3" font-family="Times,serif" font-size="14.00">index</text>
<text text-anchor="start" x="200" y="-437.3" font-family="Times,serif" font-size="14.00">new</text>
<text text-anchor="start" x="200" y="-422.3" font-family="Times,serif" font-size="14.00">update</text>
<polyline fill="none" stroke="black" points="192,-414.5 295,-414.5 "/>
<polyline fill="none" stroke="black" points="192,-390.5 295,-390.5 "/>
<text text-anchor="start" x="200" y="-375.3" font-family="Times,serif" font-size="14.00">_layout</text>
<text text-anchor="start" x="200" y="-360.3" font-family="Times,serif" font-size="14.00">item_params</text>
</g>
<!-- OrdersController -->
<g id="node8" class="node"><title>OrdersController</title>
<path fill="none" stroke="black" d="M60,-464.5C60,-464.5 145,-464.5 145,-464.5 151,-464.5 157,-470.5 157,-476.5 157,-476.5 157,-620.5 157,-620.5 157,-626.5 151,-632.5 145,-632.5 145,-632.5 60,-632.5 60,-632.5 54,-632.5 48,-626.5 48,-620.5 48,-620.5 48,-476.5 48,-476.5 48,-470.5 54,-464.5 60,-464.5"/>
<text text-anchor="middle" x="102.5" y="-617.3" font-family="Times,serif" font-size="14.00">OrdersController</text>
<polyline fill="none" stroke="black" points="48,-609.5 157,-609.5 "/>
<text text-anchor="start" x="56" y="-594.3" font-family="Times,serif" font-size="14.00">create</text>
<text text-anchor="start" x="56" y="-579.3" font-family="Times,serif" font-size="14.00">index</text>
<text text-anchor="start" x="56" y="-564.3" font-family="Times,serif" font-size="14.00">new</text>
<text text-anchor="start" x="56" y="-549.3" font-family="Times,serif" font-size="14.00">show</text>
<text text-anchor="start" x="56" y="-534.3" font-family="Times,serif" font-size="14.00">today_index</text>
<polyline fill="none" stroke="black" points="48,-526.5 157,-526.5 "/>
<polyline fill="none" stroke="black" points="48,-502.5 157,-502.5 "/>
<text text-anchor="start" x="56" y="-487.3" font-family="Times,serif" font-size="14.00">_layout</text>
<text text-anchor="start" x="56" y="-472.3" font-family="Times,serif" font-size="14.00">order_params</text>
</g>
<!-- OrganizationsController -->
<g id="node9" class="node"><title>OrganizationsController</title>
<path fill="none" stroke="black" d="M44,-64.5C44,-64.5 168,-64.5 168,-64.5 174,-64.5 180,-70.5 180,-76.5 180,-76.5 180,-175.5 180,-175.5 180,-181.5 174,-187.5 168,-187.5 168,-187.5 44,-187.5 44,-187.5 38,-187.5 32,-181.5 32,-175.5 32,-175.5 32,-76.5 32,-76.5 32,-70.5 38,-64.5 44,-64.5"/>
<text text-anchor="middle" x="106" y="-172.3" font-family="Times,serif" font-size="14.00">OrganizationsController</text>
<polyline fill="none" stroke="black" points="32,-164.5 180,-164.5 "/>
<text text-anchor="start" x="40" y="-149.3" font-family="Times,serif" font-size="14.00">create</text>
<text text-anchor="start" x="40" y="-134.3" font-family="Times,serif" font-size="14.00">new</text>
<polyline fill="none" stroke="black" points="32,-126.5 180,-126.5 "/>
<polyline fill="none" stroke="black" points="32,-102.5 180,-102.5 "/>
<text text-anchor="start" x="40" y="-87.3" font-family="Times,serif" font-size="14.00">_layout</text>
<text text-anchor="start" x="40" y="-72.3" font-family="Times,serif" font-size="14.00">organization_params</text>
</g>
<!-- StaticPagesController -->
<g id="node10" class="node"><title>StaticPagesController</title>
<path fill="none" stroke="black" d="M332,-512.5C332,-512.5 442,-512.5 442,-512.5 448,-512.5 454,-518.5 454,-524.5 454,-524.5 454,-623.5 454,-623.5 454,-629.5 448,-635.5 442,-635.5 442,-635.5 332,-635.5 332,-635.5 326,-635.5 320,-629.5 320,-623.5 320,-623.5 320,-524.5 320,-524.5 320,-518.5 326,-512.5 332,-512.5"/>
<text text-anchor="middle" x="387" y="-620.3" font-family="Times,serif" font-size="14.00">StaticPagesController</text>
<polyline fill="none" stroke="black" points="320,-612.5 454,-612.5 "/>
<text text-anchor="start" x="328" y="-597.3" font-family="Times,serif" font-size="14.00">admins_only</text>
<text text-anchor="start" x="328" y="-582.3" font-family="Times,serif" font-size="14.00">index</text>
<text text-anchor="start" x="328" y="-567.3" font-family="Times,serif" font-size="14.00">users_only</text>
<polyline fill="none" stroke="black" points="320,-559.5 454,-559.5 "/>
<polyline fill="none" stroke="black" points="320,-535.5 454,-535.5 "/>
<text text-anchor="start" x="328" y="-520.3" font-family="Times,serif" font-size="14.00">_layout</text>
</g>
<!-- UsersController -->
<g id="node11" class="node"><title>UsersController</title>
<path fill="none" stroke="black" d="M12,-336.5C12,-336.5 91,-336.5 91,-336.5 97,-336.5 103,-342.5 103,-348.5 103,-348.5 103,-417.5 103,-417.5 103,-423.5 97,-429.5 91,-429.5 91,-429.5 12,-429.5 12,-429.5 6,-429.5 0,-423.5 0,-417.5 0,-417.5 0,-348.5 0,-348.5 0,-342.5 6,-336.5 12,-336.5"/>
<text text-anchor="middle" x="51.5" y="-414.3" font-family="Times,serif" font-size="14.00">UsersController</text>
<polyline fill="none" stroke="black" points="0,-406.5 103,-406.5 "/>
<text text-anchor="start" x="8" y="-391.3" font-family="Times,serif" font-size="14.00">index</text>
<polyline fill="none" stroke="black" points="0,-383.5 103,-383.5 "/>
<polyline fill="none" stroke="black" points="0,-359.5 103,-359.5 "/>
<text text-anchor="start" x="8" y="-344.3" font-family="Times,serif" font-size="14.00">_layout</text>
</g>
</g>
</svg>
