<?xml version="1.0" encoding="UTF-8" standalone="no"?>
<!DOCTYPE svg PUBLIC "-//W3C//DTD SVG 1.1//EN"
 "http://www.w3.org/Graphics/SVG/1.1/DTD/svg11.dtd">
<!-- Generated by graphviz version 2.36.0 (20140111.2315)
 -->
<!-- Title: models_diagram Pages: 1 -->
<svg width="398pt" height="374pt"
 viewBox="0.00 0.00 398.00 374.00" xmlns="http://www.w3.org/2000/svg" xmlns:xlink="http://www.w3.org/1999/xlink">
<g id="graph0" class="graph" transform="scale(1 1) rotate(0) translate(4 370)">
<title>models_diagram</title>
<polygon fill="none" stroke="none" points="-4,4 -4,-370 394,-370 394,4 -4,4"/>
<!-- _diagram_info -->
<g id="node1" class="node"><title>_diagram_info</title>
<text text-anchor="start" x="7" y="-351.6" font-family="Times,serif" font-size="13.00">Models diagram</text>
<text text-anchor="start" x="7" y="-337.6" font-family="Times,serif" font-size="13.00">Date: Dec 25 2016 &#45; 21:38</text>
<text text-anchor="start" x="7" y="-323.6" font-family="Times,serif" font-size="13.00">Migration version: 20160915214750</text>
<text text-anchor="start" x="7" y="-309.6" font-family="Times,serif" font-size="13.00">Generated by RailRoady 1.5.2</text>
<text text-anchor="start" x="7" y="-295.6" font-family="Times,serif" font-size="13.00">http://railroady.prestonlee.com</text>
</g>
<!-- User -->
<g id="node2" class="node"><title>User</title>
<ellipse fill="none" stroke="black" cx="288" cy="-234" rx="26.949" ry="18"/>
<text text-anchor="middle" x="288" y="-230.3" font-family="Times,serif" font-size="14.00">User</text>
</g>
<!-- Order -->
<g id="node7" class="node"><title>Order</title>
<ellipse fill="none" stroke="black" cx="288" cy="-162" rx="31.2965" ry="18"/>
<text text-anchor="middle" x="288" y="-158.3" font-family="Times,serif" font-size="14.00">Order</text>
</g>
<!-- User&#45;&gt;Order -->
<g id="edge1" class="edge"><title>User&#45;&gt;Order</title>
<path fill="none" stroke="#e89786" d="M288,-207.64C288,-202.063 288,-196.132 288,-190.476"/>
<ellipse fill="none" stroke="#e89786" cx="288" cy="-211.697" rx="4" ry="4"/>
<polygon fill="#e89786" stroke="#e89786" points="288,-190.104 292.5,-180.104 288,-185.104 288,-180.104 288,-180.104 288,-180.104 288,-185.104 283.5,-180.104 288,-190.104 288,-190.104"/>
</g>
<!-- WeekdayOrder -->
<g id="node3" class="node"><title>WeekdayOrder</title>
<ellipse fill="none" stroke="black" cx="326" cy="-18" rx="64.4914" ry="18"/>
<text text-anchor="middle" x="326" y="-14.3" font-family="Times,serif" font-size="14.00">WeekdayOrder</text>
</g>
<!-- Item -->
<g id="node4" class="node"><title>Item</title>
<ellipse fill="none" stroke="black" cx="152" cy="-162" rx="26.949" ry="18"/>
<text text-anchor="middle" x="152" y="-158.3" font-family="Times,serif" font-size="14.00">Item</text>
</g>
<!-- Type -->
<g id="node5" class="node"><title>Type</title>
<ellipse fill="none" stroke="black" cx="58" cy="-90" rx="28.3955" ry="18"/>
<text text-anchor="middle" x="58" y="-86.3" font-family="Times,serif" font-size="14.00">Type</text>
</g>
<!-- Item&#45;&gt;Type -->
<g id="edge3" class="edge"><title>Item&#45;&gt;Type</title>
<path fill="none" stroke="#161f2f" d="M125.895,-141.56C112.744,-131.767 96.8526,-119.933 83.7512,-110.176"/>
<polygon fill="#161f2f" stroke="#161f2f" points="126.299,-141.861 131.632,-151.443 130.309,-144.847 134.319,-147.834 134.319,-147.834 134.319,-147.834 130.309,-144.847 137.007,-144.224 126.299,-141.861 126.299,-141.861"/>
<polygon fill="#161f2f" stroke="#161f2f" points="83.6219,-110.08 78.2891,-100.498 79.6116,-107.094 75.6014,-104.107 75.6014,-104.107 75.6014,-104.107 79.6116,-107.094 72.9137,-107.717 83.6219,-110.08 83.6219,-110.08"/>
</g>
<!-- WeekdayItem -->
<g id="node8" class="node"><title>WeekdayItem</title>
<ellipse fill="none" stroke="black" cx="182" cy="-18" rx="61.1419" ry="18"/>
<text text-anchor="middle" x="182" y="-14.3" font-family="Times,serif" font-size="14.00">WeekdayItem</text>
</g>
<!-- Item&#45;&gt;WeekdayItem -->
<g id="edge4" class="edge"><title>Item&#45;&gt;WeekdayItem</title>
<path fill="none" stroke="#8c1c10" d="M157.232,-136.233C162.547,-111.076 170.757,-72.218 176.25,-46.2145"/>
<ellipse fill="none" stroke="#8c1c10" cx="156.386" cy="-140.239" rx="4.00001" ry="4.00001"/>
<polygon fill="#8c1c10" stroke="#8c1c10" points="176.285,-46.0518 182.755,-37.198 177.318,-41.1598 178.352,-36.2678 178.352,-36.2678 178.352,-36.2678 177.318,-41.1598 173.949,-35.3376 176.285,-46.0518 176.285,-46.0518"/>
</g>
<!-- ItemType -->
<g id="node9" class="node"><title>ItemType</title>
<ellipse fill="none" stroke="black" cx="57" cy="-18" rx="45.244" ry="18"/>
<text text-anchor="middle" x="57" y="-14.3" font-family="Times,serif" font-size="14.00">ItemType</text>
</g>
<!-- Item&#45;&gt;ItemType -->
<g id="edge2" class="edge"><title>Item&#45;&gt;ItemType</title>
<path fill="none" stroke="#d6f2c5" d="M137.624,-137.827C126.291,-119.737 109.957,-94.0589 95,-72 88.7096,-62.7227 81.6015,-52.6945 75.2489,-43.8837"/>
<ellipse fill="none" stroke="#d6f2c5" cx="140.037" cy="-141.689" rx="4.00002" ry="4.00002"/>
<polygon fill="#d6f2c5" stroke="#d6f2c5" points="75.0772,-43.6469 72.8492,-32.9098 72.1417,-39.5993 69.2063,-35.5516 69.2063,-35.5516 69.2063,-35.5516 72.1417,-39.5993 65.5634,-38.1935 75.0772,-43.6469 75.0772,-43.6469"/>
</g>
<!-- Weekday -->
<g id="node10" class="node"><title>Weekday</title>
<ellipse fill="none" stroke="black" cx="251" cy="-90" rx="44.2946" ry="18"/>
<text text-anchor="middle" x="251" y="-86.3" font-family="Times,serif" font-size="14.00">Weekday</text>
</g>
<!-- Item&#45;&gt;Weekday -->
<g id="edge5" class="edge"><title>Item&#45;&gt;Weekday</title>
<path fill="none" stroke="#7886e2" d="M178.604,-142.189C191.791,-132.865 207.758,-121.575 221.338,-111.973"/>
<polygon fill="#7886e2" stroke="#7886e2" points="178.323,-142.388 167.56,-144.487 174.241,-145.274 170.158,-148.161 170.158,-148.161 170.158,-148.161 174.241,-145.274 172.756,-151.835 178.323,-142.388 178.323,-142.388"/>
<polygon fill="#7886e2" stroke="#7886e2" points="221.699,-111.718 232.462,-109.619 225.782,-108.831 229.864,-105.944 229.864,-105.944 229.864,-105.944 225.782,-108.831 227.266,-102.27 221.699,-111.718 221.699,-111.718"/>
</g>
<!-- Type&#45;&gt;ItemType -->
<g id="edge6" class="edge"><title>Type&#45;&gt;ItemType</title>
<path fill="none" stroke="#6d1bda" d="M57.6377,-63.6398C57.558,-58.0629 57.4733,-52.1319 57.3925,-46.4761"/>
<ellipse fill="none" stroke="#6d1bda" cx="57.6956" cy="-67.697" rx="4" ry="4"/>
<polygon fill="#6d1bda" stroke="#6d1bda" points="57.3873,-46.1033 61.7439,-36.04 57.3158,-41.1038 57.2443,-36.1043 57.2443,-36.1043 57.2443,-36.1043 57.3158,-41.1038 52.7448,-36.1687 57.3873,-46.1033 57.3873,-46.1033"/>
</g>
<!-- Organization -->
<g id="node6" class="node"><title>Organization</title>
<ellipse fill="none" stroke="black" cx="288" cy="-327" rx="56.3173" ry="18"/>
<text text-anchor="middle" x="288" y="-323.3" font-family="Times,serif" font-size="14.00">Organization</text>
</g>
<!-- Organization&#45;&gt;User -->
<g id="edge7" class="edge"><title>Organization&#45;&gt;User</title>
<path fill="none" stroke="#4e275b" d="M288,-300.729C288,-288.725 288,-274.362 288,-262.129"/>
<ellipse fill="none" stroke="#4e275b" cx="288" cy="-304.884" rx="4" ry="4"/>
<polygon fill="#4e275b" stroke="#4e275b" points="288,-262.04 292.5,-252.04 288,-257.04 288,-252.04 288,-252.04 288,-252.04 288,-257.04 283.5,-252.04 288,-262.04 288,-262.04"/>
</g>
<!-- Order&#45;&gt;WeekdayOrder -->
<g id="edge8" class="edge"><title>Order&#45;&gt;WeekdayOrder</title>
<path fill="none" stroke="#ec830e" d="M295.788,-136.144C298.487,-127.289 301.469,-117.226 304,-108 309.649,-87.408 315.419,-63.9566 319.632,-46.2979"/>
<ellipse fill="none" stroke="#ec830e" cx="294.586" cy="-140.055" rx="4.00001" ry="4.00001"/>
<polygon fill="#ec830e" stroke="#ec830e" points="319.736,-45.86 326.418,-37.1652 320.887,-40.9944 322.039,-36.1288 322.039,-36.1288 322.039,-36.1288 320.887,-40.9944 317.66,-35.0923 319.736,-45.86 319.736,-45.86"/>
</g>
<!-- Order&#45;&gt;Weekday -->
<g id="edge9" class="edge"><title>Order&#45;&gt;Weekday</title>
<path fill="none" stroke="#daac95" d="M274.439,-135.345C271.273,-129.354 267.898,-122.97 264.725,-116.966"/>
<polygon fill="#daac95" stroke="#daac95" points="274.558,-135.57 275.253,-146.514 276.895,-139.99 279.232,-144.411 279.232,-144.411 279.232,-144.411 276.895,-139.99 283.21,-142.308 274.558,-135.57 274.558,-135.57"/>
<polygon fill="#daac95" stroke="#daac95" points="264.636,-116.797 263.941,-105.853 262.299,-112.377 259.963,-107.956 259.963,-107.956 259.963,-107.956 262.299,-112.377 255.984,-110.059 264.636,-116.797 264.636,-116.797"/>
</g>
<!-- Weekday&#45;&gt;WeekdayOrder -->
<g id="edge11" class="edge"><title>Weekday&#45;&gt;WeekdayOrder</title>
<path fill="none" stroke="#463593" d="M273.917,-67.6111C282.456,-59.6408 292.191,-50.5552 300.915,-42.4126"/>
<ellipse fill="none" stroke="#463593" cx="270.943" cy="-70.3866" rx="4.00002" ry="4.00002"/>
<polygon fill="#463593" stroke="#463593" points="300.956,-42.3748 311.337,-38.8414 304.611,-38.9632 308.266,-35.5516 308.266,-35.5516 308.266,-35.5516 304.611,-38.9632 305.196,-32.2618 300.956,-42.3748 300.956,-42.3748"/>
</g>
<!-- Weekday&#45;&gt;WeekdayItem -->
<g id="edge10" class="edge"><title>Weekday&#45;&gt;WeekdayItem</title>
<path fill="none" stroke="#87cc96" d="M229.677,-67.3677C222.162,-59.7442 213.666,-51.125 205.949,-43.2964"/>
<ellipse fill="none" stroke="#87cc96" cx="232.535" cy="-70.2672" rx="4.00002" ry="4.00002"/>
<polygon fill="#87cc96" stroke="#87cc96" points="205.577,-42.9191 201.762,-32.6383 202.067,-39.3582 198.557,-35.7973 198.557,-35.7973 198.557,-35.7973 202.067,-39.3582 195.353,-38.9564 205.577,-42.9191 205.577,-42.9191"/>
</g>
</g>
</svg>
