<?xml version="1.0" encoding="UTF-8" standalone="no"?>
<!DOCTYPE svg PUBLIC "-//W3C//DTD SVG 1.1//EN"
 "http://www.w3.org/Graphics/SVG/1.1/DTD/svg11.dtd">
<!-- Generated by graphviz version 2.36.0 (20140111.2315)
 -->
<!-- Title: models_diagram Pages: 1 -->
<svg width="787pt" height="900pt"
 viewBox="0.00 0.00 787.00 900.00" xmlns="http://www.w3.org/2000/svg" xmlns:xlink="http://www.w3.org/1999/xlink">
<g id="graph0" class="graph" transform="scale(1 1) rotate(0) translate(4 896)">
<title>models_diagram</title>
<polygon fill="none" stroke="none" points="-4,4 -4,-896 783,-896 783,4 -4,4"/>
<!-- _diagram_info -->
<g id="node1" class="node"><title>_diagram_info</title>
<text text-anchor="start" x="277" y="-847.6" font-family="Times,serif" font-size="13.00">Models diagram</text>
<text text-anchor="start" x="277" y="-833.6" font-family="Times,serif" font-size="13.00">Date: Dec 25 2016 &#45; 21:37</text>
<text text-anchor="start" x="277" y="-819.6" font-family="Times,serif" font-size="13.00">Migration version: 20160915214750</text>
<text text-anchor="start" x="277" y="-805.6" font-family="Times,serif" font-size="13.00">Generated by RailRoady 1.5.2</text>
<text text-anchor="start" x="277" y="-791.6" font-family="Times,serif" font-size="13.00">http://railroady.prestonlee.com</text>
</g>
<!-- User -->
<g id="node2" class="node"><title>User</title>
<path fill="none" stroke="black" d="M478.5,-476.5C478.5,-476.5 767.5,-476.5 767.5,-476.5 773.5,-476.5 779.5,-482.5 779.5,-488.5 779.5,-488.5 779.5,-705.5 779.5,-705.5 779.5,-711.5 773.5,-717.5 767.5,-717.5 767.5,-717.5 478.5,-717.5 478.5,-717.5 472.5,-717.5 466.5,-711.5 466.5,-705.5 466.5,-705.5 466.5,-488.5 466.5,-488.5 466.5,-482.5 472.5,-476.5 478.5,-476.5"/>
<text text-anchor="middle" x="623" y="-702.3" font-family="Times,serif" font-size="14.00">User</text>
<polyline fill="none" stroke="black" points="466.5,-694.5 779.5,-694.5 "/>
<text text-anchor="start" x="474.5" y="-679.3" font-family="Times,serif" font-size="14.00">id :integer</text>
<text text-anchor="start" x="474.5" y="-664.3" font-family="Times,serif" font-size="14.00">organization_id :integer</text>
<text text-anchor="start" x="474.5" y="-649.3" font-family="Times,serif" font-size="14.00">email :character varying</text>
<text text-anchor="start" x="474.5" y="-634.3" font-family="Times,serif" font-size="14.00">encrypted_password :character varying</text>
<text text-anchor="start" x="474.5" y="-619.3" font-family="Times,serif" font-size="14.00">reset_password_token :character varying</text>
<text text-anchor="start" x="474.5" y="-604.3" font-family="Times,serif" font-size="14.00">reset_password_sent_at :timestamp without time zone</text>
<text text-anchor="start" x="474.5" y="-589.3" font-family="Times,serif" font-size="14.00">provider :character varying</text>
<text text-anchor="start" x="474.5" y="-574.3" font-family="Times,serif" font-size="14.00">uid :character varying</text>
<text text-anchor="start" x="474.5" y="-559.3" font-family="Times,serif" font-size="14.00">oauth_token :character varying</text>
<text text-anchor="start" x="474.5" y="-544.3" font-family="Times,serif" font-size="14.00">oauth_expires_at :timestamp without time zone</text>
<text text-anchor="start" x="474.5" y="-529.3" font-family="Times,serif" font-size="14.00">name :character varying</text>
<text text-anchor="start" x="474.5" y="-514.3" font-family="Times,serif" font-size="14.00">admin :boolean</text>
<text text-anchor="start" x="474.5" y="-499.3" font-family="Times,serif" font-size="14.00">created_at :timestamp without time zone</text>
<text text-anchor="start" x="474.5" y="-484.3" font-family="Times,serif" font-size="14.00">updated_at :timestamp without time zone</text>
</g>
<!-- Order -->
<g id="node7" class="node"><title>Order</title>
<path fill="none" stroke="black" d="M513,-288.5C513,-288.5 733,-288.5 733,-288.5 739,-288.5 745,-294.5 745,-300.5 745,-300.5 745,-427.5 745,-427.5 745,-433.5 739,-439.5 733,-439.5 733,-439.5 513,-439.5 513,-439.5 507,-439.5 501,-433.5 501,-427.5 501,-427.5 501,-300.5 501,-300.5 501,-294.5 507,-288.5 513,-288.5"/>
<text text-anchor="middle" x="623" y="-424.3" font-family="Times,serif" font-size="14.00">Order</text>
<polyline fill="none" stroke="black" points="501,-416.5 745,-416.5 "/>
<text text-anchor="start" x="509" y="-401.3" font-family="Times,serif" font-size="14.00">id :integer</text>
<text text-anchor="start" x="509" y="-386.3" font-family="Times,serif" font-size="14.00">user_id :integer</text>
<text text-anchor="start" x="509" y="-371.3" font-family="Times,serif" font-size="14.00">first_course_id :integer</text>
<text text-anchor="start" x="509" y="-356.3" font-family="Times,serif" font-size="14.00">main_course_id :integer</text>
<text text-anchor="start" x="509" y="-341.3" font-family="Times,serif" font-size="14.00">drink_id :integer</text>
<text text-anchor="start" x="509" y="-326.3" font-family="Times,serif" font-size="14.00">total :double precision</text>
<text text-anchor="start" x="509" y="-311.3" font-family="Times,serif" font-size="14.00">created_at :timestamp without time zone</text>
<text text-anchor="start" x="509" y="-296.3" font-family="Times,serif" font-size="14.00">updated_at :timestamp without time zone</text>
</g>
<!-- User&#45;&gt;Order -->
<g id="edge1" class="edge"><title>User&#45;&gt;Order</title>
<path fill="none" stroke="#60db5c" d="M623,-468.22C623,-461.967 623,-455.762 623,-449.681"/>
<ellipse fill="none" stroke="#60db5c" cx="623" cy="-472.44" rx="4" ry="4"/>
<polygon fill="#60db5c" stroke="#60db5c" points="623,-449.575 627.5,-439.575 623,-444.575 623,-439.575 623,-439.575 623,-439.575 623,-444.575 618.5,-439.576 623,-449.575 623,-449.575"/>
</g>
<!-- WeekdayOrder -->
<g id="node3" class="node"><title>WeekdayOrder</title>
<path fill="none" stroke="black" d="M536,-1C536,-1 756,-1 756,-1 762,-1 768,-7 768,-13 768,-13 768,-95 768,-95 768,-101 762,-107 756,-107 756,-107 536,-107 536,-107 530,-107 524,-101 524,-95 524,-95 524,-13 524,-13 524,-7 530,-1 536,-1"/>
<text text-anchor="middle" x="646" y="-91.8" font-family="Times,serif" font-size="14.00">WeekdayOrder</text>
<polyline fill="none" stroke="black" points="524,-84 768,-84 "/>
<text text-anchor="start" x="532" y="-68.8" font-family="Times,serif" font-size="14.00">id :integer</text>
<text text-anchor="start" x="532" y="-53.8" font-family="Times,serif" font-size="14.00">weekday_id :integer</text>
<text text-anchor="start" x="532" y="-38.8" font-family="Times,serif" font-size="14.00">order_id :integer</text>
<text text-anchor="start" x="532" y="-23.8" font-family="Times,serif" font-size="14.00">created_at :timestamp without time zone</text>
<text text-anchor="start" x="532" y="-8.8" font-family="Times,serif" font-size="14.00">updated_at :timestamp without time zone</text>
</g>
<!-- Item -->
<g id="node4" class="node"><title>Item</title>
<path fill="none" stroke="black" d="M195,-303.5C195,-303.5 415,-303.5 415,-303.5 421,-303.5 427,-309.5 427,-315.5 427,-315.5 427,-412.5 427,-412.5 427,-418.5 421,-424.5 415,-424.5 415,-424.5 195,-424.5 195,-424.5 189,-424.5 183,-418.5 183,-412.5 183,-412.5 183,-315.5 183,-315.5 183,-309.5 189,-303.5 195,-303.5"/>
<text text-anchor="middle" x="305" y="-409.3" font-family="Times,serif" font-size="14.00">Item</text>
<polyline fill="none" stroke="black" points="183,-401.5 427,-401.5 "/>
<text text-anchor="start" x="191" y="-386.3" font-family="Times,serif" font-size="14.00">id :integer</text>
<text text-anchor="start" x="191" y="-371.3" font-family="Times,serif" font-size="14.00">title :character varying</text>
<text text-anchor="start" x="191" y="-356.3" font-family="Times,serif" font-size="14.00">price :double precision</text>
<text text-anchor="start" x="191" y="-341.3" font-family="Times,serif" font-size="14.00">created_at :timestamp without time zone</text>
<text text-anchor="start" x="191" y="-326.3" font-family="Times,serif" font-size="14.00">updated_at :timestamp without time zone</text>
<text text-anchor="start" x="191" y="-311.3" font-family="Times,serif" font-size="14.00">image :character varying</text>
</g>
<!-- Type -->
<g id="node5" class="node"><title>Type</title>
<path fill="none" stroke="black" d="M13,-152.5C13,-152.5 233,-152.5 233,-152.5 239,-152.5 245,-158.5 245,-164.5 245,-164.5 245,-231.5 245,-231.5 245,-237.5 239,-243.5 233,-243.5 233,-243.5 13,-243.5 13,-243.5 7,-243.5 1,-237.5 1,-231.5 1,-231.5 1,-164.5 1,-164.5 1,-158.5 7,-152.5 13,-152.5"/>
<text text-anchor="middle" x="123" y="-228.3" font-family="Times,serif" font-size="14.00">Type</text>
<polyline fill="none" stroke="black" points="1,-220.5 245,-220.5 "/>
<text text-anchor="start" x="9" y="-205.3" font-family="Times,serif" font-size="14.00">id :integer</text>
<text text-anchor="start" x="9" y="-190.3" font-family="Times,serif" font-size="14.00">title :character varying</text>
<text text-anchor="start" x="9" y="-175.3" font-family="Times,serif" font-size="14.00">created_at :timestamp without time zone</text>
<text text-anchor="start" x="9" y="-160.3" font-family="Times,serif" font-size="14.00">updated_at :timestamp without time zone</text>
</g>
<!-- Item&#45;&gt;Type -->
<g id="edge3" class="edge"><title>Item&#45;&gt;Type</title>
<path fill="none" stroke="#bf7395" d="M231.281,-296.572C214.328,-281.296 196.544,-265.27 180.401,-250.724"/>
<polygon fill="#bf7395" stroke="#bf7395" points="231.35,-296.634 235.767,-306.671 235.065,-299.981 238.779,-303.328 238.779,-303.328 238.779,-303.328 235.065,-299.981 241.791,-299.985 231.35,-296.634 231.35,-296.634"/>
<polygon fill="#bf7395" stroke="#bf7395" points="180.048,-250.405 175.631,-240.368 176.333,-247.058 172.619,-243.711 172.619,-243.711 172.619,-243.711 176.333,-247.058 169.606,-247.054 180.048,-250.405 180.048,-250.405"/>
</g>
<!-- WeekdayItem -->
<g id="node8" class="node"><title>WeekdayItem</title>
<path fill="none" stroke="black" d="M274,-1C274,-1 494,-1 494,-1 500,-1 506,-7 506,-13 506,-13 506,-95 506,-95 506,-101 500,-107 494,-107 494,-107 274,-107 274,-107 268,-107 262,-101 262,-95 262,-95 262,-13 262,-13 262,-7 268,-1 274,-1"/>
<text text-anchor="middle" x="384" y="-91.8" font-family="Times,serif" font-size="14.00">WeekdayItem</text>
<polyline fill="none" stroke="black" points="262,-84 506,-84 "/>
<text text-anchor="start" x="270" y="-68.8" font-family="Times,serif" font-size="14.00">id :integer</text>
<text text-anchor="start" x="270" y="-53.8" font-family="Times,serif" font-size="14.00">weekday_id :integer</text>
<text text-anchor="start" x="270" y="-38.8" font-family="Times,serif" font-size="14.00">item_id :integer</text>
<text text-anchor="start" x="270" y="-23.8" font-family="Times,serif" font-size="14.00">created_at :timestamp without time zone</text>
<text text-anchor="start" x="270" y="-8.8" font-family="Times,serif" font-size="14.00">updated_at :timestamp without time zone</text>
</g>
<!-- Item&#45;&gt;WeekdayItem -->
<g id="edge4" class="edge"><title>Item&#45;&gt;WeekdayItem</title>
<path fill="none" stroke="#faef5c" d="M318.265,-295.138C327.238,-251.65 339.976,-194.159 354,-144 356.45,-135.236 359.258,-126.062 362.151,-117.075"/>
<ellipse fill="none" stroke="#faef5c" cx="317.438" cy="-299.172" rx="4.00001" ry="4.00001"/>
<polygon fill="#faef5c" stroke="#faef5c" points="362.199,-116.928 369.588,-108.825 363.755,-112.176 365.311,-107.425 365.311,-107.425 365.311,-107.425 363.755,-112.176 361.034,-106.024 362.199,-116.928 362.199,-116.928"/>
</g>
<!-- ItemType -->
<g id="node9" class="node"><title>ItemType</title>
<path fill="none" stroke="black" d="M12,-1C12,-1 232,-1 232,-1 238,-1 244,-7 244,-13 244,-13 244,-95 244,-95 244,-101 238,-107 232,-107 232,-107 12,-107 12,-107 6,-107 0,-101 0,-95 0,-95 0,-13 0,-13 0,-7 6,-1 12,-1"/>
<text text-anchor="middle" x="122" y="-91.8" font-family="Times,serif" font-size="14.00">ItemType</text>
<polyline fill="none" stroke="black" points="0,-84 244,-84 "/>
<text text-anchor="start" x="8" y="-68.8" font-family="Times,serif" font-size="14.00">id :integer</text>
<text text-anchor="start" x="8" y="-53.8" font-family="Times,serif" font-size="14.00">type_id :integer</text>
<text text-anchor="start" x="8" y="-38.8" font-family="Times,serif" font-size="14.00">item_id :integer</text>
<text text-anchor="start" x="8" y="-23.8" font-family="Times,serif" font-size="14.00">created_at :timestamp without time zone</text>
<text text-anchor="start" x="8" y="-8.8" font-family="Times,serif" font-size="14.00">updated_at :timestamp without time zone</text>
</g>
<!-- Item&#45;&gt;ItemType -->
<g id="edge2" class="edge"><title>Item&#45;&gt;ItemType</title>
<path fill="none" stroke="#22003c" d="M302.033,-295.258C297.114,-249.127 284.709,-188.583 254,-144 246.304,-132.827 236.706,-122.667 226.219,-113.542"/>
<ellipse fill="none" stroke="#22003c" cx="302.446" cy="-299.424" rx="4" ry="4"/>
<polygon fill="#22003c" stroke="#22003c" points="226.133,-113.47 221.315,-103.619 222.286,-110.275 218.44,-107.08 218.44,-107.08 218.44,-107.08 222.286,-110.275 215.565,-110.542 226.133,-113.47 226.133,-113.47"/>
</g>
<!-- Weekday -->
<g id="node10" class="node"><title>Weekday</title>
<path fill="none" stroke="black" d="M375,-145C375,-145 595,-145 595,-145 601,-145 607,-151 607,-157 607,-157 607,-239 607,-239 607,-245 601,-251 595,-251 595,-251 375,-251 375,-251 369,-251 363,-245 363,-239 363,-239 363,-157 363,-157 363,-151 369,-145 375,-145"/>
<text text-anchor="middle" x="485" y="-235.8" font-family="Times,serif" font-size="14.00">Weekday</text>
<polyline fill="none" stroke="black" points="363,-228 607,-228 "/>
<text text-anchor="start" x="371" y="-212.8" font-family="Times,serif" font-size="14.00">id :integer</text>
<text text-anchor="start" x="371" y="-197.8" font-family="Times,serif" font-size="14.00">day :character varying</text>
<text text-anchor="start" x="371" y="-182.8" font-family="Times,serif" font-size="14.00">order_number :integer</text>
<text text-anchor="start" x="371" y="-167.8" font-family="Times,serif" font-size="14.00">created_at :timestamp without time zone</text>
<text text-anchor="start" x="371" y="-152.8" font-family="Times,serif" font-size="14.00">updated_at :timestamp without time zone</text>
</g>
<!-- Item&#45;&gt;Weekday -->
<g id="edge5" class="edge"><title>Item&#45;&gt;Weekday</title>
<path fill="none" stroke="#90ccd8" d="M378.056,-296.438C392.063,-283.676 406.638,-270.396 420.357,-257.897"/>
<polygon fill="#90ccd8" stroke="#90ccd8" points="377.885,-296.593 367.463,-300.002 374.189,-299.961 370.493,-303.328 370.493,-303.328 370.493,-303.328 374.189,-299.961 373.524,-306.655 377.885,-296.593 377.885,-296.593"/>
<polygon fill="#90ccd8" stroke="#90ccd8" points="420.49,-257.776 430.912,-254.368 424.186,-254.409 427.882,-251.041 427.882,-251.041 427.882,-251.041 424.186,-254.409 424.851,-247.715 420.49,-257.776 420.49,-257.776"/>
</g>
<!-- Type&#45;&gt;ItemType -->
<g id="edge6" class="edge"><title>Type&#45;&gt;ItemType</title>
<path fill="none" stroke="#6278ac" d="M122.628,-144.202C122.566,-135.389 122.501,-126.174 122.438,-117.152"/>
<ellipse fill="none" stroke="#6278ac" cx="122.658" cy="-148.46" rx="4" ry="4"/>
<polygon fill="#6278ac" stroke="#6278ac" points="122.437,-117.081 126.867,-107.049 122.402,-112.081 122.367,-107.081 122.367,-107.081 122.367,-107.081 122.402,-112.081 117.867,-107.113 122.437,-117.081 122.437,-117.081"/>
</g>
<!-- Organization -->
<g id="node6" class="node"><title>Organization</title>
<path fill="none" stroke="black" d="M513,-755C513,-755 733,-755 733,-755 739,-755 745,-761 745,-767 745,-767 745,-879 745,-879 745,-885 739,-891 733,-891 733,-891 513,-891 513,-891 507,-891 501,-885 501,-879 501,-879 501,-767 501,-767 501,-761 507,-755 513,-755"/>
<text text-anchor="middle" x="623" y="-875.8" font-family="Times,serif" font-size="14.00">Organization</text>
<polyline fill="none" stroke="black" points="501,-868 745,-868 "/>
<text text-anchor="start" x="509" y="-852.8" font-family="Times,serif" font-size="14.00">id :integer</text>
<text text-anchor="start" x="509" y="-837.8" font-family="Times,serif" font-size="14.00">title :character varying</text>
<text text-anchor="start" x="509" y="-822.8" font-family="Times,serif" font-size="14.00">address :character varying</text>
<text text-anchor="start" x="509" y="-807.8" font-family="Times,serif" font-size="14.00">phone :character varying</text>
<text text-anchor="start" x="509" y="-792.8" font-family="Times,serif" font-size="14.00">email :character varying</text>
<text text-anchor="start" x="509" y="-777.8" font-family="Times,serif" font-size="14.00">created_at :timestamp without time zone</text>
<text text-anchor="start" x="509" y="-762.8" font-family="Times,serif" font-size="14.00">updated_at :timestamp without time zone</text>
</g>
<!-- Organization&#45;&gt;User -->
<g id="edge7" class="edge"><title>Organization&#45;&gt;User</title>
<path fill="none" stroke="#c058ed" d="M623,-746.709C623,-740.593 623,-734.313 623,-727.954"/>
<ellipse fill="none" stroke="#c058ed" cx="623" cy="-750.793" rx="4" ry="4"/>
<polygon fill="#c058ed" stroke="#c058ed" points="623,-727.908 627.5,-717.908 623,-722.908 623,-717.908 623,-717.908 623,-717.908 623,-722.908 618.5,-717.908 623,-727.908 623,-727.908"/>
</g>
<!-- Order&#45;&gt;WeekdayOrder -->
<g id="edge8" class="edge"><title>Order&#45;&gt;WeekdayOrder</title>
<path fill="none" stroke="#eb4380" d="M629.166,-280.432C632.998,-229.111 637.846,-164.193 641.354,-117.216"/>
<ellipse fill="none" stroke="#eb4380" cx="628.866" cy="-284.453" rx="4" ry="4"/>
<polygon fill="#eb4380" stroke="#eb4380" points="641.359,-117.149 646.591,-107.512 641.731,-112.163 642.104,-107.177 642.104,-107.177 642.104,-107.177 641.731,-112.163 637.616,-106.842 641.359,-117.149 641.359,-117.149"/>
</g>
<!-- Order&#45;&gt;Weekday -->
<g id="edge9" class="edge"><title>Order&#45;&gt;Weekday</title>
<path fill="none" stroke="#2b7a76" d="M553.384,-280.268C547.397,-273.153 541.416,-266.045 535.622,-259.159"/>
<polygon fill="#2b7a76" stroke="#2b7a76" points="553.619,-280.547 556.614,-291.096 556.838,-284.373 560.058,-288.199 560.058,-288.199 560.058,-288.199 556.838,-284.373 563.501,-285.301 553.619,-280.547 553.619,-280.547"/>
<polygon fill="#2b7a76" stroke="#2b7a76" points="535.354,-258.842 532.359,-248.293 532.135,-255.016 528.916,-251.19 528.916,-251.19 528.916,-251.19 532.135,-255.016 525.473,-254.087 535.354,-258.842 535.354,-258.842"/>
</g>
<!-- Weekday&#45;&gt;WeekdayOrder -->
<g id="edge11" class="edge"><title>Weekday&#45;&gt;WeekdayOrder</title>
<path fill="none" stroke="#c76d0e" d="M550.326,-139.383C559.892,-130.946 569.755,-122.247 579.347,-113.787"/>
<ellipse fill="none" stroke="#c76d0e" cx="547.036" cy="-142.285" rx="4.00002" ry="4.00002"/>
<polygon fill="#c76d0e" stroke="#c76d0e" points="579.471,-113.678 589.947,-110.438 583.221,-110.37 586.971,-107.063 586.971,-107.063 586.971,-107.063 583.221,-110.37 583.994,-103.688 579.471,-113.678 579.471,-113.678"/>
</g>
<!-- Weekday&#45;&gt;WeekdayItem -->
<g id="edge10" class="edge"><title>Weekday&#45;&gt;WeekdayItem</title>
<path fill="none" stroke="#c1dcbe" d="M443.18,-138.204C437.785,-130.619 432.254,-122.843 426.843,-115.235"/>
<ellipse fill="none" stroke="#c1dcbe" cx="445.646" cy="-141.671" rx="4.00002" ry="4.00002"/>
<polygon fill="#c1dcbe" stroke="#c1dcbe" points="426.827,-115.212 424.698,-104.455 423.929,-111.137 421.031,-107.063 421.031,-107.063 421.031,-107.063 423.929,-111.137 417.364,-109.671 426.827,-115.212 426.827,-115.212"/>
</g>
</g>
</svg>
